<svg id="svg" version="1.1" viewBox="0 0 300 300" width="300" height="300" xmlns="http://www.w3.org/2000/svg"><svg xmlns="http://www.w3.org/2000/svg"><defs><clipPath id="clip-1"><rect x="0" y="0" transform="scale(0.14648,0.14648)" width="2048" height="2048" fill="none"/></clipPath><linearGradient x1="107.05225" y1="153.81152" x2="49.8" y2="156.2959" gradientUnits="userSpaceOnUse" id="color-1"><stop offset="0" stop-color="#9989c3"/><stop offset="1" stop-color="#b7a6df"/></linearGradient></defs><g clip-path="url(#clip-1)" fill="none" fill-rule="nonzero" stroke="none" stroke-width="1" stroke-linecap="butt" stroke-linejoin="miter" stroke-miterlimit="10" stroke-dasharray="" stroke-dashoffset="0" font-family="none" font-weight="none" font-size="none" text-anchor="none" style="mix-blend-mode: normal"><path d="M0,0h300v300h-300z" fill="#ffffff"/><path d="M106.47349,123.35977c-1.4918,3.75439 -5.56348,9.13081 -8.69956,11.70366c-1.33345,1.09395 -1.91162,1.24365 -3.16523,2.04111c-2.57593,0.13052 -10.98867,-0.36665 -12.88828,0.35859c-2.61504,0.99829 -4.67754,7.25391 -5.76768,9.75659c5.6042,-0.15088 11.1356,-0.03809 16.72485,-0.15088c-1.01528,2.35693 -2.1082,4.65527 -3.2127,6.98291c-1.67593,3.53027 -3.56821,4.34033 -7.4042,4.21143c-2.15493,-0.07324 -4.41445,-0.02051 -6.5811,-0.09375c-1.74346,-0.06738 -4.38589,-0.14648 -5.31855,1.604c-1.58979,2.98389 -2.94521,6.34863 -4.33037,9.49512c-2.5229,5.73486 -5.10117,11.44629 -7.73467,17.13135c-1.23442,-1.40479 -7.17539,-8.62061 -7.81362,-9.9624c0.60015,-1.94238 2.62588,-6.07031 3.57041,-8.1167l6.23672,-13.64795c3.22749,-7.0752 6.51152,-14.12549 9.64995,-21.24009c0.46641,-1.05747 0.94351,-2.1936 1.51831,-3.1916c2.92808,-5.08315 9.03398,-4.43643 14.02778,-4.42646l10.73071,0.01362c4.34355,0 6.89897,0.30117 10.45723,-2.46855z" fill="url(#color-1)"/><path d="M72.95757,161.43018c1.71094,-0.09082 10.66406,-0.28125 12.08496,-0.09375c0.08584,0.38379 -0.07266,0.46729 -0.31348,0.92578l-10.99878,23.76123l-3.80991,8.47266c-0.52866,1.16602 -1.39717,3.2168 -1.99131,4.2334c-0.72861,-0.78809 -1.49136,-1.7168 -2.13618,-2.57666c-1.79326,-2.39062 -3.92856,-4.73437 -5.6168,-7.18945c2.57754,-4.61426 4.9021,-10.7417 7.25273,-15.56396c0.83804,-1.71826 1.73921,-4.13672 2.66821,-5.71289c0.63926,-1.72266 1.99966,-4.63916 2.86055,-6.25635z" fill="#b5a3da"/><path d="M72.95757,161.43018c1.71094,-0.09082 10.66406,-0.28125 12.08496,-0.09375c0.08584,0.38379 -0.07266,0.46729 -0.31348,0.92578c-4.19619,0.87012 -8.55088,1.99365 -12.27334,4.18359c-0.404,0.2373 -2.08052,1.37256 -2.35869,1.24072c0.63926,-1.72266 1.99966,-4.63916 2.86055,-6.25635z" fill="#8a7db0"/><path d="M102.99771,118.96465c0.48911,-0.33398 1.03872,-0.69009 1.61631,-0.84316c5.57549,-1.47788 11.18555,-2.83242 16.74771,-4.36729c0.86558,-0.23892 1.85654,-0.4793 2.73896,-0.62036c-1.03931,6.50757 -2.6376,12.93823 -3.71455,19.44185c-0.13096,0.7916 -0.26279,1.64795 -0.43301,2.42666c-1.53296,-1.35996 -3.03354,-3.14004 -4.60063,-4.61338c-1.79121,3.17813 -5.6896,6.61025 -9.43975,6.68057c-3.56982,0.0668 -7.75767,0.20625 -11.30405,0.03501c1.25361,-0.79746 1.83179,-0.94717 3.16523,-2.04111c3.13608,-2.57285 7.20776,-7.94927 8.69956,-11.70366l0.30366,-0.45366c-0.31729,-0.9167 -2.80723,-2.51748 -3.77944,-3.94146z" fill="#b5a3da"/><path d="M245.12695,147.11133l4.13232,0.01758c0.14063,6.35742 0.04834,13.05176 0.07178,19.43115l-4.02832,-0.01318c0.04248,-4.09424 0.05859,-8.18848 0.05127,-12.28271c-1.49561,3.21387 -2.84766,6.44385 -4.39893,9.64307l-2.24414,0.01318c-1.41504,-2.65576 -3.17285,-6.76318 -4.44287,-9.56689l-0.03369,1.61572l0.01318,10.5835l-3.84521,0.01318c0.0293,-6.45996 -0.09814,-12.89502 -0.04102,-19.34912l4.17041,-0.00879c1.7417,3.81445 3.60352,7.60986 5.27197,11.45068c1.30957,-3.35156 3.71484,-8.26025 5.32324,-11.54736z" fill="#b5a3da"/><path d="M186.37793,150.68994c1.5791,0.03809 3.23877,0.0249 4.82373,0.03516c1.08105,3.70898 1.79297,7.30078 2.74072,10.9834c1.00781,-3.46729 1.88672,-7.77539 2.98242,-10.99951l3.94043,0.00732c0.9624,3.54492 1.85742,7.6333 2.88428,11.05225c0.9873,-3.6709 1.54688,-7.396 2.73926,-11.03613l4.74316,0.00439l-1.00635,2.95605c-0.66064,2.32764 -1.46484,4.73291 -2.16504,7.06201c-0.55518,1.84424 -1.17627,4.11475 -1.90723,5.85352c-1.49121,-0.01172 -2.98096,-0.01611 -4.4707,-0.01318c-0.94775,-2.63525 -2.11523,-7.26416 -2.91357,-10.06787c-0.71045,2.95313 -2.23975,7.4751 -2.69531,10.05615l-4.69336,-0.00879c-1.70654,-5.32764 -3.14795,-10.5542 -5.00244,-15.88477z" fill="#000000"/><path d="M175.81641,150.49219c4.47803,-0.94775 8.88428,1.89551 9.86279,6.36768c0.97852,4.47217 -1.83545,8.896 -6.30029,9.90527c-4.50879,1.01807 -8.98389,-1.82812 -9.97266,-6.34277c-0.9873,-4.51465 1.88818,-8.97217 6.41016,-9.93018z" fill="#000000"/><path d="M176.49463,154.42236c4.99805,-0.62695 6.20654,6.36768 1.9585,8.37158c-4.94971,0.99756 -6.01904,-6.42334 -1.9585,-8.37158z" fill="#ffffff"/><path d="M99.13418,145.62173l14.39458,-0.02402l-0.02109,4.11665c-3.16538,-0.06006 -6.33149,-0.07471 -9.49746,-0.04248c-0.01802,1.54248 -0.02798,3.08496 -0.02974,4.62891c2.78584,-0.02783 5.57197,-0.04102 8.35796,-0.03955l0.01611,3.24609c-0.00059,0.13037 -0.03311,0.47168 -0.0438,0.6123c-0.49453,0.34277 -7.15386,0.18604 -8.34683,0.19775c0.07632,2.71875 0.04072,5.59131 0.05039,8.32031l-4.92231,-0.04834c0.06738,-6.98877 0.08145,-13.979 0.04219,-20.96763z" fill="#000000"/><path d="M144.21021,145.52153c4.60327,0.09521 9.37573,0.02314 13.99292,0.00894l-0.00732,4.15752c-3.14941,-0.03516 -6.29736,-0.04395 -9.44531,-0.0249c-0.08203,1.41504 -0.03223,3.1333 -0.02783,4.57178l8.16064,-0.00146l0.00293,3.42041l-0.06738,0.42188c-0.50537,0.2915 -6.91992,0.18164 -8.12549,0.20361l0.03076,8.31299l-4.88057,-0.03223l0.00366,-13.98779c-0.00425,-1.64941 -0.1248,-5.36426 0.02549,-6.88813z" fill="#000000"/><path d="M133.44478,150.47021c0.22251,-0.02344 0.44531,-0.04248 0.66841,-0.05713c4.61777,-0.29736 5.99209,2.55908 5.94434,6.6958c-0.03633,3.13037 -0.01729,6.34277 0.01538,9.47461h-4.79429c0.06533,-2.43018 0.56997,-9.60645 -0.72085,-11.37598c-0.37178,-0.50977 -0.87026,-0.82324 -1.50645,-0.86719c-0.93853,-0.06592 -2.04463,0.72949 -2.70806,1.30518c-0.97061,1.35205 -0.76846,2.50342 -0.76597,4.11035c0.00366,2.2749 0.0356,4.55566 0.05508,6.83057l-4.77832,-0.01465c0.24463,-4.38721 0.0873,-11.36572 -0.0022,-15.81006c1.32583,-0.02051 2.70088,0.00293 4.03096,0.00879c0.12905,0.76904 0.15645,1.59814 0.20508,2.38037c1.51025,-1.53809 2.25,-2.15918 4.35688,-2.68066z" fill="#000000"/><path d="M213.61523,147.20801l13.58057,-0.00439l0.01025,2.98389c-2.70264,4.08545 -6.23145,8.50342 -8.61914,12.69873l8.92529,-0.00586c0.01318,0.84814 0.1084,2.88721 -0.09814,3.62109l-0.32666,0.11279l-13.90723,0.02197l-0.01611,-2.91211c2.96484,-4.32422 6.04834,-8.4668 9.00586,-12.85107l-8.56787,0.03809z" fill="#b5a3da"/><path d="M160.83984,144.01685l4.83252,-0.00469l-0.01465,11.33745c-0.00293,1.97168 -0.03662,3.95508 0.02344,5.92529c0.05859,1.92041 1.29346,1.66846 2.61768,1.43262c-0.00439,1.1543 0.10254,2.29541 0.1084,3.46143l-0.27539,0.26221c-8.43457,2.58252 -7.31836,-4.39014 -7.31104,-9.8042z" fill="#000000"/><path d="M70.45898,201.34424c1.91118,-0.26074 5.19653,-0.02344 6.96416,0.75c2.18906,0.95654 3.71147,2.32617 0.58315,3.64453c-1.7647,0.74121 -3.65581,1.13672 -5.57007,1.16455c-0.7418,0.01758 -3.21313,-0.05566 -3.74912,0.13916c-0.06357,0.44238 2.0354,4.7168 1.83633,5.22656c-0.71763,-0.65332 -0.60762,-2.70703 -1.93828,-3.10107c-0.92827,-0.16113 -1.921,0.11133 -2.82217,-0.19775c-0.39551,0.46582 -1.34268,1.86914 -1.69292,2.07422l-0.06899,-0.11572c0.72759,-0.91113 1.16865,-1.88672 1.81318,-2.83594c0.22412,-0.32959 0.47637,-0.44238 0.7771,-0.90234c-0.59766,-0.64746 -8.94243,-0.75 -8.71523,-2.85791c0.42319,-3.92871 10.0437,-3 12.58286,-2.98828z" fill="#b5a3da"/><path d="M116.24312,150.83936c1.5791,0.01904 3.19995,0 4.78257,-0.00146c-0.07061,4.99951 0.19336,10.90723 -0.03999,15.76758l-4.76353,0.00146z" fill="#000000"/><path d="M116.19961,144.15557l4.85757,0.01802c0.02388,1.46646 0.02065,2.93335 -0.00967,4.39966c-1.59961,0.06299 -3.22954,0.04688 -4.83252,0.04834z" fill="#000000"/><path d="M133.55171,106.07153c0.10737,-0.02051 0.23027,0.02886 0.35479,0.05859c0.30718,0.9873 0.51431,2.34185 0.70532,3.38921l-2.73691,0.74546l-0.39229,0.03779c-0.47974,-0.62095 -0.63252,-2.69883 -0.73638,-3.58022c0.87026,-0.16128 1.92847,-0.44194 2.80547,-0.65083z" fill="#b5a3da"/><path d="M128.70366,111.04849c0.2146,-0.01055 0.15176,0.01289 0.39653,0.14399c0.37046,0.89546 0.5811,2.04624 0.79219,3.01011c-1.03535,0.39346 -1.9979,0.62769 -3.06929,0.9085l-0.22046,-0.0356c-0.53247,-0.63589 -0.73828,-2.27959 -0.88213,-3.12627c1.04751,-0.35024 1.91587,-0.62446 2.98315,-0.90073z" fill="#b5a3da"/><path d="M126.78838,115.89844l0.09639,0.01113c0.31772,0.45703 0.45718,1.58701 0.58037,2.20708c-0.62534,0.21123 -1.25244,0.41704 -1.8813,0.61743c-0.13711,0.0167 -0.0375,0.01333 -0.28696,-0.08467c-0.31553,-0.81372 -0.34014,-1.37036 -0.43652,-2.22554z" fill="#b5a3da"/><path d="M126.24639,108.127l0.10503,0.02153c0.32065,0.31011 0.56616,1.51787 0.7188,2.05195c-0.5291,0.19805 -1.19883,0.36592 -1.75225,0.52104l-0.07134,-0.01465c-0.404,-0.43491 -0.48706,-1.37651 -0.6394,-2.05796z" fill="#b5a3da"/><path d="M131.90889,113.69561l0.26279,0.03838c0.33281,0.53115 0.42627,1.25303 0.56162,1.88511l-1.58877,0.46479c-0.17095,0.03794 -0.05391,0.02432 -0.35054,-0.0457c-0.26279,-0.53789 -0.33823,-1.39072 -0.43037,-2.00815z" fill="#b5a3da"/></g></svg></svg>